<svg id="Layer_1" data-name="Layer 1" xmlns="http://www.w3.org/2000/svg" xmlns:xlink="http://www.w3.org/1999/xlink" viewBox="0 0 10.653 14.53722"><defs><style>.cls-1{fill:url(#linear-gradient);}.cls-2{fill:#67f;}.cls-3{fill:url(#linear-gradient-2);}</style><linearGradient id="linear-gradient" x1="4.52115" y1="16.32479" x2="9.41244" y2="9.37414" gradientTransform="matrix(1, 0, 0, -1, 0, 18)" gradientUnits="userSpaceOnUse"><stop offset="0" stop-color="#2dadda"/><stop offset="1" stop-color="#67f"/></linearGradient><linearGradient id="linear-gradient-2" x1="7.63405" y1="14.65338" x2="7.63405" y2="9.84697" gradientTransform="matrix(1, 0, 0, -1, -2.347, 17.53722)" gradientUnits="userSpaceOnUse"><stop offset="0" stop-color="#41bfe4"/><stop offset="1" stop-color="#67f"/></linearGradient></defs><path class="cls-1" d="M7.67347.46278A5.33254,5.33254,0,0,0,2.347,5.80065C2.347,9.98216,7.67347,15,7.67347,15s5.32646-5.12537,5.32646-9.19933A5.33338,5.33338,0,0,0,7.67347.46278Zm0,9.18694a3.84908,3.84908,0,1,1,3.84036-3.84907A3.84493,3.84493,0,0,1,7.67347,9.64972Z" transform="translate(-2.347 -0.46278)"/><path class="cls-2" d="M11.86838,2.51216c-.03773.10951-.07676.219-.11576.32787-.17431.48561-.35251.97385-.5437,1.45684a3.85215,3.85215,0,0,1-3.536,5.35288c-.12617,0-.251-.00652-.374-.01827a15.14651,15.14651,0,0,1-2.90451,1.47317A26.00525,26.00525,0,0,0,7.67354,15S13,9.87464,13,5.80065A5.32287,5.32287,0,0,0,11.86838,2.51216Z" transform="translate(-2.347 -0.46278)"/><circle class="cls-3" cx="5.28705" cy="5.28705" r="2.4032"/></svg>