<svg width="304" height="103" viewBox="0 0 304 103" fill="none" xmlns="http://www.w3.org/2000/svg">
<path d="M85.016 34.592H80.096V30.2H95.6V34.592H90.68V47H85.016V34.592ZM112.911 42.776H111.375V47H105.711V30.2H113.799C115.351 30.2 116.703 30.456 117.855 30.968C119.007 31.48 119.895 32.216 120.519 33.176C121.143 34.136 121.455 35.256 121.455 36.536C121.455 37.736 121.183 38.784 120.639 39.68C120.095 40.576 119.311 41.288 118.287 41.816L121.815 47H115.767L112.911 42.776ZM115.743 36.536C115.743 35.912 115.551 35.432 115.167 35.096C114.783 34.744 114.207 34.568 113.439 34.568H111.375V38.504H113.439C114.207 38.504 114.783 38.336 115.167 38C115.551 37.648 115.743 37.16 115.743 36.536ZM132.234 30.2H137.898V47H132.234V30.2ZM157.353 30.2C158.905 30.2 160.257 30.456 161.409 30.968C162.561 31.48 163.449 32.216 164.073 33.176C164.697 34.136 165.009 35.256 165.009 36.536C165.009 37.816 164.697 38.936 164.073 39.896C163.449 40.856 162.561 41.592 161.409 42.104C160.257 42.616 158.905 42.872 157.353 42.872H154.929V47H149.265V30.2H157.353ZM156.993 38.504C157.761 38.504 158.337 38.336 158.721 38C159.105 37.648 159.297 37.16 159.297 36.536C159.297 35.912 159.105 35.432 158.721 35.096C158.337 34.744 157.761 34.568 156.993 34.568H154.929V38.504H156.993ZM89.456 59.2C91.008 59.2 92.36 59.456 93.512 59.968C94.664 60.48 95.552 61.216 96.176 62.176C96.8 63.136 97.112 64.256 97.112 65.536C97.112 66.816 96.8 67.936 96.176 68.896C95.552 69.856 94.664 70.592 93.512 71.104C92.36 71.616 91.008 71.872 89.456 71.872H87.032V76H81.368V59.2H89.456ZM89.096 67.504C89.864 67.504 90.44 67.336 90.824 67C91.208 66.648 91.4 66.16 91.4 65.536C91.4 64.912 91.208 64.432 90.824 64.096C90.44 63.744 89.864 63.568 89.096 63.568H87.032V67.504H89.096ZM107.61 59.2H113.274V71.608H120.858V76H107.61V59.2ZM142.744 73.072H136.36L135.232 76H129.472L136.816 59.2H142.384L149.728 76H143.872L142.744 73.072ZM141.184 68.992L139.552 64.768L137.92 68.992H141.184ZM175.832 59.2V76H171.176L164.792 68.368V76H159.272V59.2H163.928L170.312 66.832V59.2H175.832ZM203.761 59.2V76H199.105L192.721 68.368V76H187.201V59.2H191.857L198.241 66.832V59.2H203.761ZM229.098 71.728V76H215.13V59.2H228.786V63.472H220.698V65.44H227.802V69.52H220.698V71.728H229.098ZM247.119 71.776H245.583V76H239.919V59.2H248.007C249.559 59.2 250.911 59.456 252.063 59.968C253.215 60.48 254.103 61.216 254.727 62.176C255.351 63.136 255.663 64.256 255.663 65.536C255.663 66.736 255.391 67.784 254.847 68.68C254.303 69.576 253.519 70.288 252.495 70.816L256.023 76H249.975L247.119 71.776ZM249.951 65.536C249.951 64.912 249.759 64.432 249.375 64.096C248.991 63.744 248.415 63.568 247.647 63.568H245.583V67.504H247.647C248.415 67.504 248.991 67.336 249.375 67C249.759 66.648 249.951 66.16 249.951 65.536Z" fill="white"/>
<path d="M35.164 22C22.9237 22 13 31.9462 13 44.2115C13 61.6112 35.164 82.4909 35.164 82.4909C35.164 82.4909 57.328 61.1637 57.328 44.2115C57.3253 31.9462 47.4015 22 35.164 22ZM35.164 60.2279C26.339 60.2279 19.1837 53.0565 19.1837 44.2115C19.1837 35.3665 26.339 28.195 35.164 28.195C43.989 28.195 51.1442 35.3665 51.1442 44.2115C51.1415 53.0592 43.989 60.2279 35.164 60.2279Z" fill="url(#paint0_linear_2368_2)"/>
<path d="M52.6195 30.5277C52.4625 30.9834 52.3001 31.4391 52.1378 31.892C51.4125 33.9127 50.671 35.9443 49.8754 37.9541C50.6899 39.8772 51.1419 41.9928 51.1419 44.2115C51.1419 53.0565 43.9866 60.228 35.1616 60.228C34.6366 60.228 34.117 60.2009 33.6055 60.152C29.8872 62.6528 25.7656 64.6057 21.5195 66.282C27.7655 75.523 35.1643 82.491 35.1643 82.491C35.1643 82.491 57.3283 61.1638 57.3283 44.2115C57.3256 39.0499 55.5693 34.2979 52.6195 30.5277Z" fill="#6677FF"/>
<circle cx="35" cy="44" r="10" fill="url(#paint1_linear_2368_2)"/>
<defs>
<linearGradient id="paint0_linear_2368_2" x1="22.0942" y1="27.0118" x2="42.4474" y2="55.9342" gradientUnits="userSpaceOnUse">
<stop stop-color="#2DADDA"/>
<stop offset="1" stop-color="#6677FF"/>
</linearGradient>
<linearGradient id="paint1_linear_2368_2" x1="35" y1="34" x2="35" y2="54" gradientUnits="userSpaceOnUse">
<stop stop-color="#41BFE4"/>
<stop offset="1" stop-color="#6677FF"/>
</linearGradient>
</defs>
</svg>
